# xmcd
#
# Track frame offsets: 
#        150
#        12960
#        25147
#        36640
#        48167
#        60072
#        73130
#        85135
#        98692
#        114990
#        127452
#        138795
#        151267
#        163020
#        181660
#        192607
#        204347
#        215985
#        227785
#        239082
#        251487
#        263035
#        276672
#        287550
#        301092
#        312702
#
# Disc length: 4322 seconds
#
# Revision: 3
# Processed by: cddbd v1.5.2PL0 Copyright (c) Steve Scherf et al.
# Submitted via: ExactAudioCopy v1.1
#
DISCID=7f10e01a
DTITLE=Bob Wills and His Texas Playboys - San Antonio Rose - Disc 6
DYEAR=2000
DGENRE=Country
TTITLE0=I'm Sorry We Said Goodbye (mono)
TTITLE1=Honey, What You Gonna Do (mono)
TTITLE2=Blue Bonnet Lane (mono)
TTITLE3=Bob Wills Stomp (mono)
TTITLE4=Lil Liza Jane (mono)
TTITLE5=Please Don't Leave Me (mono)
TTITLE6=Don't Count Your Chickens (mono)
TTITLE7=Cherokee Maiden (mono)
TTITLE8=New San Antonio Rose (1941) (mono)
TTITLE9=Ride On! (My Prairie Pinto) (mono)
TTITLE10=Got A Letter From My Kid Today (mono)
TTITLE11=It's All Your Fault (mono)
TTITLE12=Goodnight Little Sweetheart (mono)
TTITLE13=Dusty Skies (mono)
TTITLE14=My Life's Been A Pleasure (mono)
TTITLE15=We Might As Well Forget It (mono)
TTITLE16=Drop Us Off At Bob's Place (mono)
TTITLE17=Home In San Antone (mono)
TTITLE18=That Hot Lick Fiddlin' Man (mono)
TTITLE19=Liberty (mono)
TTITLE20=Miss Molly (mono)
TTITLE21=It Never Can Be (mono)
TTITLE22=Honeymoon Trail (mono)
TTITLE23=It Seems Like Yesterday (mono)
TTITLE24=You're From Texas (mono)
TTITLE25=Goodbye, Liza Jane (mono)
EXTD=
EXTT0=
EXTT1=
EXTT2=
EXTT3=
EXTT4=
EXTT5=
EXTT6=
EXTT7=
EXTT8=
EXTT9=
EXTT10=
EXTT11=
EXTT12=
EXTT13=
EXTT14=
EXTT15=
EXTT16=
EXTT17=
EXTT18=
EXTT19=
EXTT20=
EXTT21=
EXTT22=
EXTT23=
EXTT24=
EXTT25=
PLAYORDER=
